# xmcd
#
# Track frame offsets: 
#        150
#        4481
#        18496
#        36261
#        50973
#        65033
#        84398
#        105337
#
# Disc length: 1590 seconds
#
# Revision: 0
# Processed by: cddbd v1.5.2PL0 Copyright (c) Steve Scherf et al.
# Submitted via: ExactAudioCopy v0.95b4
#
DISCID=68063408
DTITLE=Landlord - Look Back and Wonder
DYEAR=2009
DGENRE=Porn Groove
TTITLE0=The Wilderness
TTITLE1=Lose or Win for You
TTITLE2=Evergreen
TTITLE3=Missing Link Blues
TTITLE4=Now Didn't You
TTITLE5=Goodness Is Its Own Reward
TTITLE6=One Fine Day
TTITLE7=I Wish He'd Break Your Heart for Me
EXTD=
EXTT0=
EXTT1=
EXTT2=
EXTT3=
EXTT4=
EXTT5=
EXTT6=
EXTT7=
PLAYORDER=
